<svg version="1" xmlns="http://www.w3.org/2000/svg" width="666.667" height="666.667" viewBox="0 0 500.000000 500.000000"><path d="M232.8.4c-.1.2-3.7.6-7.8 1-46.1 4-94.1 23.7-132 54.2-7.9 6.3-25.4 23.3-32.6 31.4-20.9 24-40.9 60.5-49.7 91-3.7 12.5-4.6 16-4.1 16 .3 0 .1.8-.5 1.7-.5 1-1.1 3.6-1.4 5.8-.3 2.2-1.4 8.5-2.3 14-3.2 19.2-2.5 55.8 1.5 78 1.8 9.5 1.9 10.4 4.1 18.9 8.5 33.1 26.1 68 48 95.2 3.5 4.3 12 13.5 19 20.4 26.8 26.6 57.7 45.8 94.5 58.7 3.9 1.3 7.7 2.6 8.5 2.8.8.2 5.8 1.4 11 2.8s11.1 2.8 13 3.1c20.7 3.4 26 3.9 44.5 4 27.5.1 40.1-1.2 64-6.9 30.6-7.3 63.8-23.1 89.9-43 17.8-13.4 35.1-30.7 48.3-48 27.9-36.9 45-79.8 50-125.5 1.2-11.3.9-45.2-.5-56.5-6.1-48-25.6-92.6-57.2-130.6-4.5-5.4-21.6-22.8-28-28.4-21.5-18.9-54-37.4-82-46.8-19.3-6.5-29-8.8-49.5-11.8-7.1-1-47.8-2.2-48.7-1.5z"/></svg>